<svg xmlns="http://www.w3.org/2000/svg" width="400" height="400" viewBox="0 0 400 400">
  <defs>
    <style>
      .cls-1 {
        fill: #fff;
        fill-rule: evenodd;
      }
    </style>
  </defs>
  <g id="Prancheta_1" data-name="Prancheta 1">
    <g id="Agrupar_1" data-name="Agrupar 1">
      <path id="P" class="cls-1" d="M204.453,174.036c8.679-20.83,23.433-26.9,23.433-26.9l-8.389-24.88c-28.93,0-49.181,21.987-57.281,41.949L97.7,324.471h46l31.244-78.111c77.821,32.113,134.524-23.433,134.524-83.607,0-43.684-30.087-88.814-101.255-88.814-83.607,0-116.876,61.91-116.876,103.569,0,27.194,14.175,48.892,14.175,48.892l30.666-22.855s-6.654-12.729-6.654-26.615c0-28.351,27.194-67.117,78.689-67.117,44.552,0,57.281,29.8,57.281,53.23,0,44.552-44.552,73.193-78.689,54.1Z"/>
      <path id="_96" data-name="96" class="cls-1" d="M193.842,306.57a16.2,16.2,0,0,0,9.089-2.878c-3.939,8.407-7.726,13.784-11.285,13.784-4.469,0-2.2-7.119-1.061-9.391H178.467c-3.105,9.922,1.818,18.4,12.043,18.4,19.237,0,29.235-28.4,29.235-41.656,0-13.936-11.058-14.618-14.012-14.618-13.1,0-22.57,13.936-22.646,24.918C183.087,301.571,186.344,306.57,193.842,306.57Zm11.815-27.342c1.44,0,3.257.682,3.257,4.544,0,2.5-.757,5.529-1.893,9.316-2.5,3.03-6.211,5.6-8.937,5.6-2.273,0-3.56-1.742-3.56-4.241C194.524,289.15,200.129,279.228,205.657,279.228Zm28.4,47.261c13.1,0,22.57-13.936,22.57-24.918,0-6.438-3.181-11.436-10.679-11.436a15.723,15.723,0,0,0-9.164,2.953c3.711-7.8,7.422-13.86,11.436-13.86,4.09,0,2.348,6.362.985,9.392h12.118c3.03-11.361-2.423-18.405-12.118-18.405-19.162,0-29.235,28.4-29.235,41.657C219.97,325.808,231.1,326.489,234.057,326.489Zm7.65-28.478c2.272,0,3.484,1.742,3.484,4.242,0,5.3-5.6,15.223-11.058,15.223-1.439,0-3.257-.681-3.257-4.544a31.648,31.648,0,0,1,1.894-9.24C235.269,300.511,238.9,298.011,241.707,298.011Z"/>
    </g>
  </g>
</svg>
